<svg width="600" height="400" viewBox="0 0 600 400" xmlns="http://www.w3.org/2000/svg">
  <!-- Background -->
  <rect width="600" height="400" fill="#f8f9fa"/>
  
  <!-- UI/UX Design Portfolio Illustration -->
  <!-- Design Canvas -->
  <rect x="50" y="50" width="500" height="300" rx="10" fill="white" stroke="#dee2e6" stroke-width="2"/>
  
  <!-- Design Tools Panel -->
  <rect x="50" y="50" width="60" height="300" rx="10" fill="#343a40"/>
  
  <!-- Tool Icons -->
  <circle cx="80" cy="80" r="10" fill="#4a6cf7"/>
  <rect x="70" y="110" width="20" height="20" rx="3" fill="#dc3545"/>
  <polygon points="70,160 90,160 80,140" fill="#28a745"/>
  <circle cx="80" cy="190" r="10" stroke="#ffc107" stroke-width="2" fill="none"/>
  <line x1="70" y1="220" x2="90" y2="220" stroke="#6c757d" stroke-width="2"/>
  <line x1="70" y1="230" x2="90" y2="230" stroke="#6c757d" stroke-width="2"/>
  <line x1="70" y1="240" x2="90" y2="240" stroke="#6c757d" stroke-width="2"/>
  
  <!-- Design Elements -->
  <!-- Mobile App Mockup -->
  <rect x="150" y="80" width="120" height="240" rx="10" fill="#e9ecef" stroke="#adb5bd" stroke-width="2"/>
  <rect x="150" y="80" width="120" height="40" rx="10" fill="#4a6cf7"/>
  <rect x="150" y="110" width="120" height="10" rx="0" fill="#4a6cf7"/>
  <circle cx="210" cy="100" r="5" fill="white"/>
  
  <!-- App Content -->
  <rect x="160" y="130" width="100" height="60" rx="5" fill="white"/>
  <rect x="170" y="140" width="80" height="5" rx="2" fill="#adb5bd"/>
  <rect x="170" y="150" width="60" height="5" rx="2" fill="#adb5bd"/>
  <rect x="170" y="165" width="40" height="15" rx="3" fill="#4a6cf7"/>
  
  <rect x="160" y="200" width="100" height="60" rx="5" fill="white"/>
  <rect x="170" y="210" width="80" height="5" rx="2" fill="#adb5bd"/>
  <rect x="170" y="220" width="60" height="5" rx="2" fill="#adb5bd"/>
  <rect x="170" y="235" width="40" height="15" rx="3" fill="#4a6cf7"/>
  
  <circle cx="210" cy="290" r="10" stroke="#adb5bd" stroke-width="2" fill="white"/>
  
  <!-- Website Mockup -->
  <rect x="300" y="80" width="220" height="160" rx="5" fill="#e9ecef" stroke="#adb5bd" stroke-width="2"/>
  <rect x="300" y="80" width="220" height="30" rx="5" fill="#4a6cf7"/>
  
  <!-- Navigation -->
  <rect x="320" y="90" width="30" height="10" rx="2" fill="white"/>
  <rect x="360" y="90" width="30" height="10" rx="2" fill="white"/>
  <rect x="400" y="90" width="30" height="10" rx="2" fill="white"/>
  <rect x="440" y="90" width="30" height="10" rx="2" fill="white"/>
  
  <!-- Website Content -->
  <rect x="320" y="130" width="180" height="10" rx="2" fill="#adb5bd"/>
  <rect x="320" y="150" width="140" height="10" rx="2" fill="#adb5bd"/>
  <rect x="320" y="170" width="100" height="10" rx="2" fill="#adb5bd"/>
  <rect x="320" y="200" width="60" height="20" rx="3" fill="#4a6cf7"/>
  
  <!-- Color Palette -->
  <rect x="300" y="260" width="220" height="60" rx="5" fill="white" stroke="#adb5bd" stroke-width="2"/>
  <circle cx="330" cy="290" r="15" fill="#4a6cf7"/>
  <circle cx="370" cy="290" r="15" fill="#28a745"/>
  <circle cx="410" cy="290" r="15" fill="#ffc107"/>
  <circle cx="450" cy="290" r="15" fill="#dc3545"/>
  <circle cx="490" cy="290" r="15" fill="#343a40"/>
  
  <!-- Rulers and Guides -->
  <line x1="50" y1="30" x2="550" y2="30" stroke="#adb5bd" stroke-width="1" stroke-dasharray="5,5"/>
  <line x1="50" y1="370" x2="550" y2="370" stroke="#adb5bd" stroke-width="1" stroke-dasharray="5,5"/>
  <line x1="30" y1="50" x2="30" y2="350" stroke="#adb5bd" stroke-width="1" stroke-dasharray="5,5"/>
  <line x1="570" y1="50" x2="570" y2="350" stroke="#adb5bd" stroke-width="1" stroke-dasharray="5,5"/>
</svg>