<svg width="600" height="400" viewBox="0 0 600 400" xmlns="http://www.w3.org/2000/svg">
  <!-- Background -->
  <rect width="600" height="400" fill="#f8f9fa"/>
  
  <!-- E-commerce Website Illustration -->
  <!-- Header -->
  <rect x="50" y="50" width="500" height="60" rx="5" fill="#4a6cf7"/>
  <circle cx="90" cy="80" r="15" fill="white"/>
  
  <!-- Navigation -->
  <rect x="200" y="70" width="40" height="20" rx="5" fill="white"/>
  <rect x="260" y="70" width="40" height="20" rx="5" fill="white"/>
  <rect x="320" y="70" width="40" height="20" rx="5" fill="white"/>
  <rect x="380" y="70" width="40" height="20" rx="5" fill="white"/>
  <rect x="440" y="70" width="40" height="20" rx="5" fill="white"/>
  
  <!-- Search Bar -->
  <rect x="50" y="130" width="500" height="40" rx="20" fill="white" stroke="#dee2e6" stroke-width="2"/>
  <circle cx="80" cy="150" r="10" fill="none" stroke="#6c757d" stroke-width="2"/>
  <line x1="87" y1="157" x2="95" y2="165" stroke="#6c757d" stroke-width="2"/>
  
  <!-- Product Grid -->
  <!-- Row 1 -->
  <rect x="50" y="190" width="150" height="150" rx="5" fill="white" stroke="#dee2e6" stroke-width="2"/>
  <rect x="70" y="210" width="110" height="80" rx="5" fill="#e9ecef"/>
  <rect x="70" y="300" width="110" height="20" rx="5" fill="#e9ecef"/>
  
  <rect x="220" y="190" width="150" height="150" rx="5" fill="white" stroke="#dee2e6" stroke-width="2"/>
  <rect x="240" y="210" width="110" height="80" rx="5" fill="#e9ecef"/>
  <rect x="240" y="300" width="110" height="20" rx="5" fill="#e9ecef"/>
  
  <rect x="390" y="190" width="150" height="150" rx="5" fill="white" stroke="#dee2e6" stroke-width="2"/>
  <rect x="410" y="210" width="110" height="80" rx="5" fill="#e9ecef"/>
  <rect x="410" y="300" width="110" height="20" rx="5" fill="#e9ecef"/>
  
  <!-- Shopping Cart Icon -->
  <circle cx="520" cy="80" r="15" fill="white"/>
  <path d="M510 80 L515 75 L525 75 L530 80 L525 85 L515 85 Z" fill="none" stroke="#4a6cf7" stroke-width="2"/>
  <line x1="515" y1="80" x2="515" y2="90" stroke="#4a6cf7" stroke-width="2"/>
  <line x1="525" y1="80" x2="525" y2="90" stroke="#4a6cf7" stroke-width="2"/>
  <path d="M515 75 L520 65 L525 75" fill="none" stroke="#4a6cf7" stroke-width="2"/>
</svg>